Inverse Dynamics Generalized Forces
version=1
nRows=9
nColumns=34
inDegrees=no
endheader 
time	pelvis_tilt_moment	pelvis_list_moment	pelvis_rotation_moment	pelvis_tx_force	pelvis_ty_force	pelvis_tz_force	hip_flexion_l_moment	hip_adduction_l_moment	hip_rotation_l_moment	hip_flexion_r_moment	hip_adduction_r_moment	hip_rotation_r_moment	knee_angle_l_moment	knee_angle_r_moment	ankle_angle_l_moment	ankle_angle_r_moment	subtalar_angle_l_moment	subtalar_angle_r_moment	mtp_angle_l_moment	mtp_angle_r_moment	lumbar_extension_moment	lumbar_bending_moment	lumbar_rotation_moment	arm_flex_l_moment	arm_add_l_moment	arm_rot_l_moment	arm_flex_r_moment	arm_add_r_moment	arm_rot_r_moment	elbow_flex_l_moment	elbow_flex_r_moment	pro_sup_l_moment	pro_sup_r_moment	
          4.20000000	         -0.00000006	         -0.00000017	         -0.00000001	         -0.00000015	         -0.00000004	          0.00000013	        -27.13487774	         10.36826337	        -12.44107153	         54.13818700	        -37.11079181	          1.63167315	          0.94472293	        -45.70421323	          0.63597577	         11.92642260	         -0.04144712	         18.82714760	         -0.09544765	         -0.25039958	         12.20201692	         -9.45467754	        -18.61226394	        152.15949823	        -47.45436045	        -47.45154797	         44.48828442	         14.70377455	        -19.47901173	         40.46576685	         14.13077129	         -1.54693828	         -0.59540077	
          4.21000000	          0.00000002	         -0.00000001	         -0.00000001	          0.00000002	         -0.00000002	         -0.00000001	        -29.57610506	         15.20651961	         -8.35562358	         43.50615026	        -20.60977269	         -3.84299978	          3.32653468	       -124.23514124	          0.40884213	         25.53967636	         -0.03839701	         12.45699326	         -0.08659229	         -0.17168693	         42.33983007	        -56.34490046	         -2.01199515	        108.15684603	        -27.91183882	        -35.08375210	         46.32174059	          8.53956741	        -11.43784624	         27.59123687	          8.47930342	         -1.28996155	         -0.32789432	
          4.22000000	          0.00000010	          0.00000004	         -0.00000003	          0.00000009	          0.00000012	         -0.00000005	        -20.48250864	         19.30960710	         -7.46975165	          0.35118111	        -35.32301886	          3.39402468	          4.92501118	       -138.79870841	          0.43033157	         15.33851685	          0.10419722	         11.86368510	         -0.09848278	          0.40347318	         62.67203883	        -38.65742047	         13.61558211	         43.80026504	        -15.44799867	        -17.01663938	         13.59971163	         -0.69650449	          0.50063781	         14.09843181	          3.89855570	         -0.76547490	         -0.05815186	
          4.23000000	          0.00000017	          0.00000008	         -0.00000003	          0.00000017	          0.00000019	         -0.00000014	         -1.24311619	         40.79449240	         -6.46020257	        -24.29568532	        -29.89001445	         -2.00861743	          9.15510124	       -189.57098295	          2.16315918	          6.17465139	         -0.56491567	          8.42003010	         -0.22489553	          2.62681098	         71.64871534	        -64.01493740	         11.12976921	         70.23284314	          4.73030836	        -20.52766283	         21.18468316	          0.27330952	         -0.52874550	         22.97563136	          2.54748136	         -1.13300091	         -0.06983229	
          4.24000000	          0.00000034	          0.00000016	         -0.00000004	          0.00000040	          0.00000021	         -0.00000023	          2.20597599	         28.79967724	         -5.46446948	        -50.43776558	        -66.38376835	          2.02074300	          7.96890858	       -227.47849400	          2.92076158	        -20.51827078	         -0.63023619	         11.14138725	         -0.29886848	          5.92754392	         98.36387871	        -83.60304938	          5.80180313	         89.94780973	         17.05604918	        -22.52374790	         37.25195572	          7.11984577	         -4.86065126	         28.52335421	          2.88782205	         -1.30615281	         -0.17107536	
          4.25000000	          0.00000029	          0.00000023	         -0.00000002	          0.00000032	          0.00000022	         -0.00000032	         -4.34368091	         24.47163496	         -4.05292445	        -34.46275916	        -68.73937049	         -3.92201816	         10.15114994	       -215.39093008	          2.17428985	        -43.21628071	         -0.28853199	         14.65734580	         -0.30336467	          6.72044317	         83.21631390	        -80.90129265	          2.81185224	         72.32410694	         19.41539759	        -15.02873411	         44.44773464	         13.42825351	         -7.98743227	         24.26237233	          2.89014669	         -0.98073674	         -0.22631547	
          4.26000000	          0.00000033	          0.00000027	         -0.00000003	          0.00000036	          0.00000021	         -0.00000036	        -29.38756104	         21.56425170	        -11.05418804	        -14.07603226	        -64.89933775	         -5.27541309	          8.13217582	       -202.19220645	          1.62065147	        -63.17828465	         -0.08121161	         14.40766564	         -0.30209902	          7.63216728	         77.74082078	        -70.57743440	        -12.23136176	         16.72919217	         33.33567695	          6.48661881	         17.43423083	         14.87581070	         -1.48411638	         17.39824332	          2.65366958	         -0.31057993	         -0.06876111	
          4.27000000	          0.00000056	          0.00000021	         -0.00000014	          0.00000071	          0.00000006	         -0.00000030	        -44.33607775	         18.48740929	        -12.65291252	         -4.48489128	        -52.36266088	         -6.42793157	          6.81114410	       -123.00115578	          1.83868252	        -79.20606568	         -0.24060531	         10.40157487	         -0.38644590	          8.40134391	         63.40808017	        -12.56092445	         -9.45924986	         26.32012424	         13.73691249	         -1.63419289	        -24.27619540	        -19.70733461	         11.97238184	         11.44021210	         -0.36347162	         -0.31378910	          0.16438672	
          4.28000000	          0.00000019	          0.00000006	         -0.00000002	          0.00000022	          0.00000013	         -0.00000007	        -19.78492278	         13.35041030	        -10.46894588	         63.71951176	        -50.87983936	          0.19081415	          6.32027832	       -156.73890480	          4.35830643	        -89.72576297	         -1.61792651	          6.12384991	         -0.47342405	         11.23485380	         -1.95226693	        -34.46989302	         -8.57439093	         56.79440632	         -4.16597361	        -15.96038257	          8.93786784	         -0.32721391	          3.48976393	         15.00475651	         -0.45290421	         -0.77271105	          0.06342922	
